<svg width="21" height="21" fill="none" xmlns="http://www.w3.org/2000/svg"><path d="M20 0h-4c-2.76 0-4.98 1.24-6.95 4.01C9.04 4.01 9.02 4 9 4H5.35c-1.23 0-2.32.74-2.78 1.89l-1.5 3.74c-.12.31-.09.66.1.93s.5.44.83.44h3.64c-.2.54-.39 1.1-.59 1.68-.12.36-.03.76.24 1.02l2 2c.19.2.45.3.71.3.19 0 .28-.01 2-.64V19a.999.999 0 001.37.93l3.74-1.5A2.985 2.985 0 0017 15.64V12c0-.02-.01-.04-.01-.05C19.76 9.98 21 7.76 21 5V1c0-.55-.45-1-1-1zM3.48 9l.95-2.37c.15-.38.51-.63.92-.63h2.48c-.48.89-.95 1.89-1.41 3H3.48zM15 15.65a1 1 0 01-.63.93l-2.37.94v-2.94c1.11-.46 2.11-.93 3-1.41v2.48zM19 5c0 2.69-1.32 5.62-10.73 8.85l-1.12-1.12C10.38 3.32 13.31 2 16 2h3v3zm-3-1c.55 0 1 .45 1 1s-.45 1-1 1-1-.45-1-1 .45-1 1-1z" fill="#fff"/></svg>