<svg width="48" height="48" fill="none" xmlns="http://www.w3.org/2000/svg"><rect x=".5" y=".5" width="47" height="47" rx="9.539" stroke="#fff"/><g clip-path="url(#clip0_898_31332)" fill="#fff"><path d="M23.017 28.527H21.87v-9.065h3.038a2.708 2.708 0 011.967.785 2.557 2.557 0 01.822 1.913c.007.362-.062.721-.204 1.053a2.51 2.51 0 01-.618.871c-.531.515-1.187.772-1.967.772h-1.892v3.67zm0-4.784h1.92a1.491 1.491 0 001.133-.47 1.545 1.545 0 00.46-1.107 1.568 1.568 0 00-.46-1.107 1.493 1.493 0 00-1.133-.481h-1.92v3.165zm7.32-1.621c.846 0 1.515.23 2.005.69.49.46.734 1.091.734 1.892v3.823H31.98v-.86h-.05c-.474.708-1.105 1.062-1.892 1.062-.672 0-1.234-.202-1.687-.607a1.938 1.938 0 01-.508-.681 1.968 1.968 0 01-.17-.838c0-.642.238-1.152.715-1.531.477-.38 1.114-.569 1.911-.57.68 0 1.24.127 1.68.38v-.266a1.345 1.345 0 00-.473-1.031 1.606 1.606 0 00-1.105-.425c-.64 0-1.146.275-1.519.823l-1.009-.645c.555-.81 1.376-1.216 2.464-1.216zm-1.482 4.506a.945.945 0 00.38.76c.253.202.568.31.89.304a1.81 1.81 0 001.288-.544c.38-.363.57-.79.57-1.278-.358-.29-.856-.434-1.495-.434-.465 0-.853.114-1.163.342-.314.231-.47.513-.47.85zm10.51-4.303l-3.825 8.936h-1.182l1.419-3.127-2.515-5.809h1.245l1.818 4.455h.025l1.767-4.455h1.248zm-20.977 1.74c0-.355-.029-.709-.088-1.059h-4.83v2.006h2.766c-.056.32-.176.626-.352.898a2.392 2.392 0 01-.67.684v1.302h1.65c.967-.906 1.524-2.246 1.524-3.83z"/><path d="M13.47 29.154c1.382 0 2.546-.461 3.394-1.257l-1.65-1.302c-.46.317-1.052.498-1.744.498-1.336 0-2.47-.916-2.876-2.15h-1.7v1.342a5.177 5.177 0 001.887 2.094 5.061 5.061 0 002.689.775z"/><path d="M10.594 24.943a3.17 3.17 0 010-1.993v-1.342h-1.7a5.279 5.279 0 000 4.677l1.7-1.342z"/><path d="M13.47 20.8a2.756 2.756 0 011.965.781l1.461-1.486a4.877 4.877 0 00-3.426-1.356c-.95 0-1.88.268-2.689.775a5.177 5.177 0 00-1.888 2.094l1.701 1.342c.406-1.234 1.54-2.15 2.876-2.15z"/></g><defs><clipPath id="clip0_898_31332"><path fill="#fff" transform="translate(8.348 18.74)" d="M0 0h31.304v12.522H0z"/></clipPath></defs></svg>