<svg width="64" height="64" fill="none" xmlns="http://www.w3.org/2000/svg"><rect width="64" height="64" rx="32" fill="#F5F8FF"/><path d="M39.41 28L34 22.59c-.38-.38-.88-.59-1.41-.59H27c-1.65 0-3 1.35-3 3v14c0 1.65 1.35 3 3 3h10c1.65 0 3-1.35 3-3v-9.59c0-.53-.21-1.03-.59-1.41zm-2.82 0H35c-.55 0-1-.45-1-1v-1.59L36.59 28zM38 39c0 .55-.45 1-1 1H27c-.55 0-1-.45-1-1V25c0-.55.45-1 1-1h5v3c0 1.65 1.35 3 3 3h3v9zm-8-9h-1c-.55 0-1-.45-1-1s.45-1 1-1h1c.55 0 1 .45 1 1s-.45 1-1 1zm5 4h-6c-.55 0-1-.45-1-1s.45-1 1-1h6c.55 0 1 .45 1 1s-.45 1-1 1zm-2 4h-4c-.55 0-1-.45-1-1s.45-1 1-1h4c.55 0 1 .45 1 1s-.45 1-1 1z" fill="#FF5762"/></svg>