<svg width="64" height="64" fill="none" xmlns="http://www.w3.org/2000/svg"><rect width="64" height="64" rx="32" fill="#F5F8FF"/><path d="M40 27h-1.75c.46-.52.75-1.17.75-2 0-1.74-1.26-3-3-3-1.97 0-3.23 1.25-4 2.64-.77-1.39-2.03-2.64-4-2.64-1.74 0-3 1.26-3 3 0 .83.3 1.48.75 2H24c-1.1 0-2 .9-2 2v2c0 1.1.9 2 2 2v6c0 1.65 1.35 3 3 3h10c1.65 0 3-1.35 3-3v-6c1.1 0 2-.9 2-2v-2c0-1.1-.9-2-2-2zm-4-3c.93 0 1 .77 1 1 0 1.19-2.1 1.75-3.79 1.93C33.57 25.71 34.43 24 36 24zm-8 0c1.57 0 2.43 1.71 2.79 2.93C29.1 26.75 27 26.19 27 25c0-.23.07-1 1-1zm-4 5h7v2h-7v-2zm2 10v-6h5v7h-4c-.55 0-1-.45-1-1zm12 0c0 .55-.45 1-1 1h-4v-7h5v6zm-5-8v-2h7v2h-7z" fill="#FF5762"/></svg>