<svg width="64" height="64" fill="none" xmlns="http://www.w3.org/2000/svg"><rect width="64" height="64" rx="32" fill="#F5F8FF"/><path d="M41 22h-4c-2.76 0-4.98 1.24-6.95 4.01-.01 0-.03-.01-.05-.01h-3.65c-1.23 0-2.32.74-2.78 1.89l-1.5 3.74c-.12.31-.09.66.1.93s.5.44.83.44h3.64c-.2.54-.39 1.1-.59 1.68-.12.36-.03.76.24 1.02l2 2c.19.2.45.3.71.3.19 0 .28-.01 2-.64V41a.999.999 0 001.37.93l3.74-1.5A2.985 2.985 0 0038 37.64V34c0-.02-.01-.04-.01-.05C40.76 31.98 42 29.76 42 27v-4c0-.55-.45-1-1-1zm-16.52 9l.95-2.37c.15-.38.51-.63.92-.63h2.48c-.48.89-.95 1.89-1.41 3h-2.94zM36 37.65a1 1 0 01-.63.93l-2.37.94v-2.94c1.11-.46 2.11-.93 3-1.41v2.48zM40 27c0 2.69-1.32 5.62-10.73 8.85l-1.12-1.12C31.38 25.32 34.31 24 37 24h3v3zm-3-1c.55 0 1 .45 1 1s-.45 1-1 1-1-.45-1-1 .45-1 1-1z" fill="#FF5762"/></svg>