<svg width="64" height="64" fill="none" xmlns="http://www.w3.org/2000/svg"><rect width="64" height="64" rx="32" fill="#F5F8FF"/><path fill-rule="evenodd" clip-rule="evenodd" d="M32.556 24.1H24.11v13.65h8.445V24.1zM24.11 22c-1.165 0-2.11.94-2.11 2.1v13.65c0 1.16.945 2.1 2.111 2.1h8.445c1.166 0 2.11-.94 2.11-2.1V24.1c0-1.16-.944-2.1-2.11-2.1H24.11z" fill="#FF5762"/><path fill-rule="evenodd" clip-rule="evenodd" d="M29.766 42.89a2.112 2.112 0 01-1.392-1.58 2.104 2.104 0 01-.04-.41v-2.953c1.165 0 2.11.94 2.11 2.1v.853H31.5c1.166 0 2.111.94 2.111 2.1h-3.167a2.127 2.127 0 01-.678-.11zM41 31.121c-1.166 0-2.111.94-2.111 2.1v1.706c0 1.16.945 2.1 2.111 2.1v-5.906zm-12.667-.919c1.166 0 2.111-.94 2.111-2.1v-.853H31.5c1.166 0 2.111-.94 2.111-2.1h-3.167a2.127 2.127 0 00-.678.11 2.11 2.11 0 00-1.433 1.99v2.953zm0 .919c1.166 0 2.111.94 2.111 2.1v1.706c0 1.16-.945 2.1-2.11 2.1v-5.906zm7.39-5.972c0 1.16.944 2.1 2.11 2.1h1.056v.853c0 1.16.945 2.1 2.111 2.1V27.25a2.096 2.096 0 00-1.7-2.06 2.126 2.126 0 00-.411-.04h-3.167zM41 37.947c-1.166 0-2.111.94-2.111 2.1v.853h-1.056c-1.166 0-2.11.94-2.11 2.1h3.166a2.126 2.126 0 00.679-.11 2.112 2.112 0 001.392-1.58c.026-.133.04-.27.04-.41v-2.953z" fill="#FF5762"/></svg>